<svg width="126" height="126" viewBox="0 0 126 126" fill="none" xmlns="http://www.w3.org/2000/svg">
<g clip-path="url(#clip0)">
<path d="M54.2762 116.427C24.7918 111.528 4.79039 83.5552 9.68929 54.0699C14.5882 24.5847 42.5607 4.58231 72.0451 9.48108C101.53 14.38 121.533 42.3535 116.634 71.8387C111.736 101.324 83.7623 121.326 54.2762 116.427ZM71.7586 11.2056C43.2252 6.46479 16.1547 25.8222 11.4138 54.3565C6.67287 82.8907 26.0295 109.961 54.5637 114.702C83.0979 119.443 110.169 100.086 114.91 71.5522C119.651 43.0179 100.294 15.9466 71.7586 11.2056Z" fill="white"/>
<path d="M56.7951 101.267C35.6702 97.7569 21.3396 77.7145 24.8496 56.5888C28.3596 35.4631 48.4014 21.1316 69.5262 24.6414C90.6519 28.1514 104.984 48.1941 101.474 69.3198C97.9643 90.4447 77.9216 104.777 56.7951 101.267ZM29.0081 48.4804C27.8903 51.118 27.064 53.927 26.5741 56.8753C23.2221 77.05 36.9079 96.1896 57.0826 99.5416C77.2573 102.894 96.3977 89.208 99.7497 69.0333C100.239 66.0858 100.366 63.1605 100.161 60.3023C81.0192 57.1237 62.8579 70.1091 59.6778 89.2491C59.5987 89.7255 59.1487 90.0473 58.6723 89.9681C58.196 89.889 57.8742 89.4389 57.9534 88.9626C61.1343 69.8227 48.1487 51.6623 29.0081 48.4804ZM29.7536 46.8356C46.8948 49.9047 59.2281 64.4479 60.128 81.2068C66.3997 65.6394 82.774 55.8659 99.9867 58.5047C98.0543 42.5807 85.8449 29.1248 69.2397 26.3659C52.6362 23.6073 36.7315 32.3921 29.7536 46.8356Z" fill="white"/>
<path d="M39.8317 80.3361C36.1191 79.7193 33.6007 76.1963 34.2177 72.4828C34.8348 68.7685 38.3571 66.2491 42.0698 66.866C45.7841 67.4831 48.3033 71.0062 47.6862 74.7206C47.0694 78.4332 43.5461 80.9533 39.8317 80.3361ZM41.7831 68.5913C39.0215 68.1324 36.4003 70.0067 35.9413 72.7692C35.4824 75.5317 37.3567 78.152 40.1184 78.6108C42.8818 79.07 45.5037 77.1959 45.9626 74.4342C46.4217 71.6708 44.5465 69.0504 41.7831 68.5913Z" fill="white"/>
<path d="M80.0247 87.0141C76.3104 86.397 73.7911 82.8738 74.4081 79.1603C75.0253 75.446 78.5484 72.9268 82.2627 73.5439C85.9762 74.1609 88.4946 77.6839 87.8775 81.3983C87.2606 85.1109 83.7382 87.6311 80.0247 87.0141ZM81.9761 75.2692C79.2127 74.8101 76.5916 76.6844 76.1326 79.4469C75.6736 82.2094 77.5488 84.8298 80.3113 85.2888C83.0739 85.7478 85.6941 83.8734 86.153 81.1117C86.6121 78.3484 84.7386 75.7282 81.9761 75.2692Z" fill="white"/>
<path d="M64.0729 57.4634C58.7672 56.5819 55.1674 51.5475 56.0489 46.2418C56.9304 40.9361 61.9639 37.3362 67.2705 38.2179C72.577 39.0996 76.1768 44.1339 75.2952 49.4396C74.4137 54.7453 69.3794 58.3451 64.0729 57.4634ZM66.9839 39.9424C62.6292 39.2188 58.4969 42.1736 57.7732 46.5292C57.0497 50.8839 60.0045 55.0162 64.3592 55.7397C68.7148 56.4634 72.8469 53.5095 73.5706 49.1539C74.2951 44.7985 71.3403 40.6662 66.9839 39.9424Z" fill="white"/>
<path d="M67.9424 56.1579C67.6578 56.1106 67.4017 55.9227 67.2806 55.6367L65.2394 50.8364L61.7512 54.7189C61.4285 55.0773 60.876 55.1042 60.517 54.7848C60.1579 54.461 60.1282 53.9099 60.4513 53.5498L64.4829 49.0625L62.6289 44.7045L57.7775 49.5794C57.4369 49.9211 56.8834 49.9229 56.5409 49.5821C56.1992 49.2415 56.1974 48.6881 56.5382 48.3455L62.3055 42.5501C62.5101 42.3441 62.807 42.2601 63.0907 42.308C63.3766 42.3633 63.6162 42.5571 63.73 42.8246L65.7712 47.6249L69.2592 43.7433C69.4535 43.5269 69.7428 43.4219 70.0311 43.462C70.2964 43.507 70.5682 43.6829 70.695 43.9448L74.2751 51.2933C74.4869 51.7268 74.3062 52.2499 73.8719 52.4617C73.4376 52.6734 72.9145 52.4927 72.7036 52.0585L69.6918 45.8771L66.5267 49.3995L68.8884 54.9533C69.0771 55.3967 68.8704 55.9103 68.4261 56.0997C68.2677 56.1672 68.1006 56.1842 67.9424 56.1579Z" fill="white"/>
<path d="M23.6531 77.6765C23.7696 77.5703 23.8612 77.4487 23.9273 77.31C23.9932 77.1721 24.03 77.0234 24.0397 76.8667C24.0478 76.7089 24.0254 76.5538 23.9716 76.4012C23.9171 76.2476 23.8371 76.113 23.7319 75.9958C23.6256 75.8792 23.5033 75.7875 23.3654 75.7215C23.2275 75.6556 23.0788 75.6189 22.9221 75.6092C22.7635 75.6009 22.6093 75.6226 22.4558 75.6771C22.3032 75.7309 22.1686 75.8109 22.0512 75.917C21.9346 76.0232 21.843 76.1447 21.7769 76.2834C21.711 76.4213 21.6734 76.5699 21.6646 76.7267C21.6556 76.8844 21.678 77.0395 21.7326 77.1922C21.7863 77.3457 21.8663 77.4803 21.9724 77.5977C22.0786 77.7142 22.2001 77.8058 22.3388 77.8719C22.4767 77.9378 22.6246 77.9744 22.7821 77.9843C22.9399 77.9924 23.095 77.97 23.2476 77.9162C23.4009 77.8634 23.5348 77.7824 23.6531 77.6765ZM21.0019 76.4386L16.2368 78.1226L16.8729 79.9221L21.6381 78.2372L21.0019 76.4386ZM30.384 89.318L28.7531 86.5679C28.5462 86.2187 28.3192 85.928 28.072 85.6969C27.825 85.4648 27.5622 85.3016 27.2837 85.202C27.0049 85.1041 26.7144 85.0713 26.4118 85.1062C26.1094 85.1402 25.8042 85.2478 25.495 85.4313C25.2975 85.5481 25.1247 85.682 24.9785 85.8324C24.8322 85.9827 24.7205 86.1525 24.6442 86.3428C24.568 86.5323 24.5331 86.7424 24.5397 86.9715C24.5447 87.2003 24.5961 87.4506 24.6945 87.7224C24.3984 87.5683 24.106 87.4956 23.8169 87.5061C23.5281 87.5149 23.2175 87.619 22.8854 87.8158C22.3396 88.1398 22.0123 88.5456 21.9082 89.0324C21.8041 89.5192 21.9309 90.0659 22.2898 90.6709L23.8008 93.2205L30.384 89.318ZM24.0962 90.7336L23.9101 90.4197C23.5923 89.8834 23.6465 89.4898 24.071 89.2386C24.4957 88.9866 24.867 89.1283 25.1849 89.6637L25.371 89.9777L24.0962 90.7336ZM26.6449 89.2224L26.422 88.8456C26.1674 88.4153 26.0392 88.074 26.0389 87.8219C26.0395 87.57 26.1619 87.3718 26.4062 87.2266C26.6504 87.0822 26.883 87.0701 27.1039 87.1902C27.3246 87.3112 27.5635 87.5875 27.818 88.0177L28.0413 88.3929L26.6449 89.2224ZM36.3823 104.846L39.2425 101.455C40.0103 100.546 40.361 99.7036 40.2958 98.9315C40.2305 98.1593 39.766 97.4086 38.9021 96.6801C38.0373 95.9515 37.2217 95.6207 36.4508 95.6887C35.6809 95.7561 34.9124 96.2443 34.1453 97.1543L31.2851 100.545L32.7988 101.821L35.4815 98.6391C35.6259 98.4687 35.7794 98.3007 35.9424 98.1325C36.1054 97.9643 36.2832 97.8364 36.4724 97.7491C36.6608 97.6609 36.8631 97.6291 37.0765 97.6542C37.2901 97.6785 37.5232 97.7981 37.7768 98.0114C38.0302 98.2256 38.1895 98.437 38.252 98.6461C38.3147 98.8535 38.3178 99.0579 38.2614 99.2576C38.2033 99.457 38.1067 99.65 37.9677 99.8393C37.8304 100.029 37.6896 100.209 37.5451 100.379L34.8624 103.561L36.3823 104.846ZM49.1858 110.491L52.0719 103.403L48.0215 101.753L47.3853 103.315L49.5939 104.213L47.3431 109.74L49.1858 110.491ZM63.6776 112.477L65.66 112.65L66.3279 105.027L64.3455 104.853L64.0569 108.159L61.7679 104.628L59.2006 104.402L62.1552 108.706L58.816 112.05L61.2621 112.265L63.9541 109.332L63.6776 112.477ZM89.3409 95.8422L91.0203 99.9673L87.2988 97.053L86.6183 97.4569L87.31 102.168L84.4963 98.7139L82.794 99.7231L87.8137 105.645L89.5076 104.64L88.7366 100.354L92.1353 103.083L93.8291 102.079L91.0449 94.8332L89.3409 95.8422ZM102.907 92.4134L97.1767 87.3408L95.8583 88.8302L101.589 93.9029L102.907 92.4134ZM105.044 65.6186L109.64 66.4941L104.356 69.2284L103.986 71.1712L111.505 72.6037L111.875 70.6591L107.278 69.7834L112.561 67.05L112.934 65.0947L105.416 63.6641L105.044 65.6186ZM111.798 54.8576L111.191 50.5458L103.612 51.6153L104.221 55.9264L105.889 55.6909L105.558 53.3494L106.865 53.1649L107.177 55.3758L108.845 55.1411L108.533 52.9301L109.8 52.7509L110.13 55.0932L111.798 54.8576ZM97.0392 37.9414L101.242 36.465L98.1502 40.0409L98.5208 40.7408L103.259 40.2773L99.6736 42.9203L100.599 44.6698L106.756 39.943L105.836 38.2021L101.518 38.7647L104.406 35.5017L103.486 33.7617L96.1144 36.192L97.0392 37.9414ZM84.5362 26.7189L87.8098 23.698L86.3881 28.206L87.0049 28.7025L91.1726 26.3996L88.9273 30.2469L90.4702 31.4865L94.2513 24.7072L92.7159 23.474L88.9737 25.7014L90.3345 21.56L88.7991 20.3269L82.9933 25.4793L84.5362 26.7189ZM68.7963 18.8555C68.8595 19.3864 69.016 19.8787 69.2695 20.3355C69.5224 20.7912 69.8679 21.1919 70.3061 21.5365C70.7435 21.881 71.2618 22.1426 71.8579 22.3191C72.4482 22.4937 73.0219 22.5564 73.5808 22.5064C74.1396 22.4565 74.65 22.3099 75.1129 22.0659C75.5767 21.8221 75.9786 21.4949 76.3203 21.0845C76.6595 20.6738 76.9109 20.196 77.0729 19.6508C77.2341 19.1056 77.2837 18.5684 77.2221 18.0386C77.1604 17.5088 77.0016 17.0153 76.7455 16.5581C76.4885 16.1008 76.1397 15.6996 75.6991 15.3537C75.2585 15.0078 74.7426 14.7474 74.1522 14.5728C73.5546 14.3952 72.9791 14.3332 72.4245 14.3838C71.8698 14.4344 71.3618 14.5823 70.9006 14.8265C70.4409 15.0719 70.039 15.3991 69.6989 15.8097C69.3595 16.2213 69.1073 16.699 68.9463 17.2434C68.785 17.7895 68.7346 18.3257 68.7963 18.8555ZM71.3466 17.0762C71.5301 16.8623 71.7425 16.692 71.9844 16.5662C72.2264 16.4404 72.4869 16.3641 72.7666 16.3375C73.0463 16.3108 73.3254 16.3391 73.6042 16.4216C73.883 16.504 74.1318 16.6322 74.3522 16.8074C74.5718 16.9815 74.7508 17.1884 74.8885 17.4264C75.026 17.6651 75.1129 17.9239 75.1509 18.2029C75.1878 18.4826 75.1637 18.7676 75.0774 19.0595C74.9902 19.3513 74.8553 19.6041 74.6726 19.8181C74.4891 20.0319 74.2742 20.2018 74.0307 20.3265C73.7845 20.4516 73.5216 20.5275 73.2436 20.5544C72.9639 20.5811 72.6839 20.5526 72.4051 20.4702C72.1256 20.3867 71.8768 20.2585 71.6571 20.0844C71.4367 19.9093 71.2602 19.7036 71.1267 19.4664C70.9915 19.2288 70.9053 18.9711 70.8692 18.6915C70.8312 18.4125 70.8555 18.1266 70.9427 17.8349C71.0282 17.5428 71.163 17.2908 71.3466 17.0762ZM55.7531 14.0423L53.768 14.1701L54.2609 21.8066L56.2452 21.6787L56.0317 18.3665L58.8287 21.5118L61.4008 21.3464L57.8294 17.5392L60.6245 13.7274L58.1732 13.8853L55.9559 17.1918L55.7531 14.0423ZM40.539 18.8214L43.2668 25.9715L47.3539 24.4122L46.7535 22.838L44.5244 23.6883L42.3972 18.1116L40.539 18.8214ZM29.1887 26.9005L33.8521 32.9683L37.3213 30.3025L36.2942 28.9662L34.4036 30.4199L30.7656 25.688L29.1887 26.9005ZM21.6361 36.1147L27.7154 40.7644L28.9233 39.1844L22.8449 34.5348L21.6361 36.1147ZM13.5101 55.5633L21.4885 55.9426L22.1602 54.0275L18.472 51.1411L23.1543 51.1922L23.8261 49.2771L17.3611 44.5882L16.6728 46.5513L20.8995 49.4326L15.6978 49.3288L15.1742 50.8229L19.3006 53.9928L14.1992 53.6003L13.5101 55.5633Z" fill="white"/>
</g>
<defs>
<clipPath id="clip0">
<rect width="108.411" height="108.412" fill="white" transform="translate(18.5737 0.596924) rotate(9.43341)"/>
</clipPath>
</defs>
</svg>
