<svg width="30" height="30" viewBox="0 0 30 30" fill="none" xmlns="http://www.w3.org/2000/svg">
<path d="M29.0466 6.25254V23.9242C29.0466 26.8498 26.6755 29.2251 23.7458 29.2251H6.07614C3.15052 29.2251 0.775269 26.8498 0.775269 23.9242V6.25254C0.775269 3.32692 3.15052 0.95166 6.07614 0.95166H23.7458C26.6755 0.955798 29.0466 3.32692 29.0466 6.25254ZM9.72386 11.1851C7.56999 11.1851 5.82168 12.9376 5.82168 15.0915C5.82168 17.2453 7.56999 18.9937 9.72386 18.9937C11.8777 18.9937 13.6261 17.2433 13.6261 15.0915C13.624 12.9376 11.8777 11.1851 9.72386 11.1851ZM20.1043 11.1851C17.9504 11.1851 16.2 12.9376 16.2 15.0915C16.2 17.2453 17.9504 18.9937 20.1043 18.9937C22.2581 18.9937 24.0064 17.2433 24.0064 15.0915C24.0064 12.9376 22.2581 11.1851 20.1043 11.1851Z" fill="white"/>
</svg>
