<svg width="29" height="30" viewBox="0 0 29 30" fill="none" xmlns="http://www.w3.org/2000/svg">
<path d="M28.8269 20.9219C28.7172 23.1896 28.2021 25.1924 26.5447 26.8497C24.8874 28.507 22.8805 29.0201 20.619 29.1339C18.6679 29.2477 16.7354 29.227 14.7843 29.227C12.8353 29.227 10.9007 29.2477 8.95171 29.1339C6.68612 29.0201 4.68121 28.507 3.0239 26.8497C1.36867 25.1924 0.85349 23.1875 0.739693 20.9219C0.630034 18.9749 0.648658 17.0383 0.648658 15.0913C0.648658 13.1402 0.630034 11.2057 0.739693 9.25664C0.85349 6.99104 1.36867 4.98821 3.0239 3.33091C4.68121 1.67361 6.68818 1.15842 8.95171 1.04669C10.9007 0.932895 12.8353 0.955654 14.7843 0.955654C16.7354 0.955654 18.6679 0.932895 20.619 1.04669C22.8826 1.15842 24.8874 1.67361 26.5447 3.33091C28.2021 4.98821 28.7172 6.99518 28.8269 9.25664C28.9386 11.2057 28.9179 13.1402 28.9179 15.0913C28.92 17.0383 28.9407 18.9729 28.8269 20.9219ZM6.44816 4.06542C5.80262 4.32405 5.32675 4.63234 4.82811 5.13098C4.32947 5.62961 4.01498 6.10756 3.75842 6.75103C3.02391 8.60696 3.18943 13.0264 3.18943 15.0893C3.18943 17.1521 3.02391 21.5674 3.75842 23.4234C4.01705 24.0689 4.32947 24.5468 4.82811 25.0434C5.32675 25.54 5.80262 25.8566 6.44816 26.111C8.30409 26.8456 12.7236 26.68 14.7843 26.68C16.8472 26.68 21.2646 26.8456 23.1226 26.111C23.7681 25.8566 24.246 25.5462 24.7426 25.0434C25.2392 24.5468 25.5516 24.0689 25.8102 23.4234C26.5468 21.5695 26.3813 17.1521 26.3813 15.0893C26.3813 13.0264 26.5468 8.60696 25.8102 6.75103C25.5516 6.10549 25.2413 5.62755 24.7426 5.13098C24.244 4.63441 23.766 4.32198 23.1226 4.06335C21.2666 3.32884 16.8472 3.49437 14.7843 3.49437C12.7236 3.4923 8.30616 3.32677 6.44816 4.06542ZM14.7843 22.3392C10.7745 22.3392 7.53234 19.0991 7.53234 15.0893C7.53234 11.0774 10.7704 7.83314 14.7843 7.83314C18.7983 7.83314 22.0363 11.0733 22.0363 15.0893C22.0363 19.0991 18.7983 22.3392 14.7843 22.3392ZM14.7843 10.3781C12.1898 10.3781 10.0752 12.4906 10.0752 15.0893C10.0752 17.6838 12.1898 19.7984 14.7843 19.7984C17.3789 19.7984 19.4955 17.6859 19.4955 15.0893C19.4955 12.4947 17.3789 10.3781 14.7843 10.3781ZM22.3322 9.23802C21.3928 9.23802 20.6397 8.48282 20.6397 7.54555C20.6397 6.6062 21.3949 5.85307 22.3322 5.85307C23.2695 5.85307 24.0247 6.6062 24.0247 7.54555C24.0267 8.48075 23.2715 9.23802 22.3322 9.23802Z" fill="white"/>
</svg>
