<svg width="34" height="22" viewBox="0 0 34 22" fill="none" xmlns="http://www.w3.org/2000/svg">
<path d="M28.8509 12.212C24.2393 9.46722 18.3961 7.96222 12.3391 7.96222C8.44705 7.96222 5.79684 8.5009 3.20832 9.22873C2.24199 9.50012 1.76294 10.158 1.76294 11.1532C1.76294 12.1442 2.57301 12.9583 3.57223 12.9583C3.99577 12.9583 4.23221 12.8411 4.68454 12.7219C6.79401 12.1462 9.32291 11.7268 12.2486 11.7268C17.9746 11.7268 23.1866 13.2318 26.9512 15.4687C27.2843 15.6456 27.6153 15.8573 28.0964 15.8573C29.1244 15.8573 29.9036 15.0431 29.9036 14.046C29.9016 13.2359 29.6014 12.6623 28.8509 12.212Z" fill="white"/>
<path d="M26.1062 18.9906C22.2183 16.6673 17.7012 15.5262 12.6352 15.5262C9.6807 15.5262 6.85162 15.9169 3.98759 16.5481C3.29472 16.7043 2.72314 17.1567 2.72314 18.1189C2.72314 18.8734 3.29472 19.5992 4.19936 19.5992C4.47076 19.5992 4.94981 19.4471 5.31372 19.3566C7.66786 18.8755 10.133 18.5465 12.6373 18.5465C17.068 18.5465 21.254 19.628 24.6012 21.6491C24.959 21.8588 25.2036 21.9801 25.5922 21.9801C26.3427 21.9801 27.0067 21.3777 27.0067 20.5368C27.0088 19.6917 26.6798 19.3545 26.1062 18.9906Z" fill="white"/>
<path d="M31.9535 4.47108C26.7415 1.42817 19.5989 0.00952148 12.7894 0.00952148C8.78015 0.00952148 5.104 0.463902 1.82054 1.42817C0.977575 1.66667 0.196289 2.39039 0.196289 3.65689C0.196289 4.8905 1.12561 5.85683 2.36538 5.85683C2.81771 5.85683 3.23919 5.70468 3.57227 5.61422C6.49386 4.80004 9.65807 4.49986 12.8202 4.49986C19.087 4.49986 25.5984 5.88561 29.7803 8.38778C30.2038 8.62628 30.5061 8.74348 30.9892 8.74348C32.1344 8.74348 33.1604 7.84088 33.1604 6.57438C33.1583 5.46207 32.6752 4.8905 31.9535 4.47108Z" fill="white"/>
</svg>
