<svg width="25" height="28" viewBox="0 0 25 28" fill="none" xmlns="http://www.w3.org/2000/svg">
<path d="M24.4936 11.4452C24.4936 10.0511 24.4796 8.71604 24.504 7.37928C24.5092 6.98816 24.3719 6.90125 24.0085 6.87865C20.5313 6.66484 17.7635 3.93048 17.5183 0.467769C17.494 0.113154 17.388 -0.00505072 17.0333 0.000164211C15.891 0.0175473 14.7436 0.00537876 13.5979 0.00537876C12.9424 0.00537876 12.9424 0.00711752 12.9424 0.66246C12.9424 6.64746 12.9441 12.6342 12.9372 18.6192C12.9372 18.9721 12.9233 19.3319 12.8694 19.6778C12.546 21.875 10.5658 23.3613 8.34037 23.0953C6.22278 22.845 4.65978 20.9207 4.82843 18.7791C5.0075 16.5715 6.84172 14.9514 9.05668 15.0591C9.40613 15.0783 9.75211 15.1391 10.1502 15.1843C10.1624 15 10.1815 14.8471 10.1815 14.6871C10.1833 13.5103 10.1624 12.3335 10.1954 11.1549C10.2076 10.7134 10.0511 10.583 9.62866 10.5447C5.8681 10.1814 2.14057 12.4638 0.774046 15.9839C-0.456872 19.1529 0.335933 22.8589 2.73518 25.1465C5.35523 27.6428 9.11926 28.3885 12.2783 26.9422C15.7224 25.3638 17.4958 22.6399 17.5166 18.8365C17.5323 15.8188 17.5062 12.8028 17.4975 9.78337C17.4975 9.5991 17.4975 9.41658 17.4975 9.09152C19.6203 10.6821 21.9048 11.4 24.4936 11.4452Z" fill="white"/>
</svg>
