<svg width="27" height="22" viewBox="0 0 27 22" fill="none" xmlns="http://www.w3.org/2000/svg">
<path d="M26.6689 2.83191C25.7171 3.20434 24.7509 3.50435 23.7226 3.5809C24.2461 3.21468 24.7116 2.79674 25.0964 2.30224C25.4771 1.80981 25.7875 1.27393 25.9737 0.622178C25.8806 0.665628 25.8371 0.688386 25.7937 0.713215C24.8233 1.2553 23.7929 1.65049 22.7067 1.8905C22.5536 1.92567 22.4563 1.89464 22.3487 1.78498C21.5936 1.0153 20.6749 0.518725 19.6238 0.318028C17.7844 -0.0316393 16.1272 0.388377 14.7512 1.68153C13.3671 2.98709 12.8208 4.60715 13.065 6.49204C13.0836 6.63481 13.1043 6.78171 13.125 6.95758C8.52135 6.63895 4.77019 4.71267 1.76801 1.18703C0.452106 4.07747 0.98179 6.50239 3.41498 8.52591C2.5584 8.51349 1.78872 8.2528 1.02524 7.91347C1.17421 10.7232 2.62048 12.5109 5.34747 13.3364C4.53227 13.5309 3.75843 13.5537 2.92253 13.4213C3.84946 15.7862 5.53575 17.0379 8.04964 17.2573C5.64334 19.0759 2.98048 19.8022 0.0300293 19.5477C0.313488 19.738 0.582453 19.9325 0.880395 20.0649C1.70801 20.4456 2.53769 20.8243 3.386 21.1512C4.29224 21.5071 5.24814 21.7016 6.21025 21.8298C7.75375 22.0326 9.29725 22.0243 10.8387 21.7967C12.5808 21.5464 14.2319 21.0291 15.7837 20.2036C17.6086 19.2332 19.1583 17.9318 20.4535 16.32C21.5253 14.9834 22.3612 13.5123 22.9653 11.9171C23.6978 9.98044 24.0743 7.97761 23.9999 5.90444C23.9916 5.68719 24.0661 5.5527 24.2357 5.42856C25.1937 4.71267 26.0027 3.84781 26.6689 2.83191Z" fill="white"/>
</svg>
