<svg width="31" height="27" viewBox="0 0 31 27" fill="none" xmlns="http://www.w3.org/2000/svg">
<path fill-rule="evenodd" clip-rule="evenodd" d="M17.517 7.74897C17.9894 6.2145 18.5835 4.83471 19.5282 3.62817C21.4487 1.16559 24.0107 0.348855 27.0182 0.823222C28.7303 1.09547 29.8257 2.3412 30.1825 4.21597C30.626 6.53418 30.1846 8.72039 29.2172 10.8365C28.1631 13.1506 26.781 15.2625 25.2793 17.3023C23.6229 19.5483 21.8922 21.7325 19.8191 23.6196C18.5484 24.7787 17.189 25.8223 15.5223 26.3668C15.1551 26.4885 14.7714 26.5669 14.3836 26.6226C12.9809 26.8164 11.964 26.1523 11.1554 25.1025C10.3117 24.0074 9.70317 22.7761 9.32774 21.4479C8.4593 18.3418 7.64244 15.2213 6.74925 12.1235C6.48109 11.2015 6.08295 10.3106 5.66627 9.44019C5.4703 9.02976 5.12169 8.67089 4.78545 8.34915C4.48428 8.05834 4.0903 8.02122 3.70662 8.26665C3.07335 8.67296 2.4339 9.07101 1.7573 9.49588C1.30143 8.90808 0.843458 8.31615 0.348389 7.68297C0.624803 7.4396 0.886795 7.20861 1.14671 6.97967C2.74743 5.5772 4.32545 4.14998 5.95918 2.78875C6.58833 2.26282 7.30206 1.82145 8.03642 1.44815C9.74441 0.575726 11.5205 1.12228 12.5024 2.77225C13.1707 3.89217 13.3873 5.15027 13.5915 6.41456C14.033 9.10401 14.3898 11.8141 15.151 14.4417C15.347 15.1182 15.6007 15.7885 15.9122 16.4216C16.4506 17.5044 17.057 17.591 17.9172 16.7434C18.9032 15.7699 19.6314 14.6046 20.2976 13.4042C20.7638 12.5628 21.195 11.6862 21.5209 10.7808C21.721 10.2342 21.7808 9.599 21.7457 9.00914C21.688 7.86653 21.0258 7.26636 19.8748 7.29111C19.2704 7.30142 18.666 7.46229 18.0678 7.56748C17.9028 7.59016 17.7542 7.66647 17.517 7.74897Z" fill="white"/>
</svg>
