<svg width="31" height="21" viewBox="0 0 31 21" fill="none" xmlns="http://www.w3.org/2000/svg">
<path d="M11.6136 0.683559H19.8358C19.8358 0.683559 18.9963 1.22186 20.3454 5.75515L23.225 15.2384C23.2559 15.1455 23.2848 15.0899 23.3158 14.9971L25.9272 6.68533H25.8963C27.3981 1.94372 26.1665 0.68562 26.1665 0.68562H30.3685C30.3685 0.68562 28.8069 2.69652 27.4578 6.62551L24.8175 15.0259C23.8562 18.4785 24.8175 20.9988 24.8175 20.9988H17.9752C18.3651 20.4316 18.2454 18.5094 17.4657 15.987L15.3637 9.26547L13.5319 15.0239C12.5707 18.4764 13.6227 20.9968 13.6227 20.9968H6.71858C7.07957 20.4296 6.99082 18.5074 6.17808 15.985L2.93747 5.69328C1.58634 1.76223 0.325928 0.681496 0.325928 0.681496H8.54826C8.54826 0.681496 7.70868 1.2198 9.0598 5.75309L11.9395 15.2363C11.9725 15.1435 11.9993 15.0878 12.0302 14.995L14.5819 6.83382L14.2209 5.69328C12.8739 1.76223 11.6136 0.683559 11.6136 0.683559Z" fill="white"/>
</svg>
