<svg width="28" height="34" viewBox="0 0 28 34" fill="none" xmlns="http://www.w3.org/2000/svg">
<path d="M26.8126 30.5256C26.465 31.9802 25.2857 33.0499 23.8663 33.1947C20.4793 33.5837 17.0571 33.5837 13.6535 33.5837C10.2499 33.5837 6.82361 33.5837 3.43659 33.1947C2.01723 33.0499 0.821329 31.9802 0.490282 30.5256C0.0144033 28.467 0.0144043 26.2014 0.0144043 24.0868C0.0144043 21.9515 0.0350937 19.7066 0.490282 17.6459C0.842019 16.1913 2.01723 15.1237 3.45728 14.9582C6.82361 14.5899 10.2499 14.5899 13.6535 14.5899C17.0571 14.5899 20.4793 14.5899 23.8663 14.9582C25.2857 15.1237 26.4816 16.1913 26.8126 17.6459C27.2885 19.7066 27.2885 21.9515 27.2885 24.0868C27.2885 26.2014 27.2719 28.4649 26.8126 30.5256ZM7.79812 19.5018V17.7721H2.05655V19.5018H3.98902V29.9753H5.83254V19.5018H7.79812ZM10.7982 0.59906L8.57195 7.94415V12.9305H6.73257V7.94415C6.56705 7.03998 6.19462 5.75097 5.60908 4.03987C5.20562 2.89776 4.79595 1.74117 4.41318 0.59906H6.36014L7.66984 5.43854L8.92162 0.59906H10.7982V0.59906ZM12.77 29.9732V20.8798H11.1293V27.8338C10.761 28.349 10.4093 28.6076 10.0823 28.6076C9.86096 28.6076 9.73061 28.4794 9.69337 28.2207C9.67267 28.1649 9.67268 27.9621 9.67268 27.5752V20.8777H8.03607V28.0759C8.03607 28.7214 8.09193 29.1435 8.18504 29.4187C8.32987 29.8801 8.71885 30.0994 9.25267 30.0994C9.84234 30.0994 10.4651 29.7291 11.1272 28.9739V29.967H12.768V29.9732H12.77ZM15.7308 9.94698C15.7308 10.9236 15.5653 11.6581 15.2177 12.1195C14.7563 12.7464 14.1108 13.0588 13.2666 13.0588C12.439 13.0588 11.7955 12.7464 11.3341 12.1195C10.9824 11.6415 10.8169 10.9236 10.8169 9.94698V6.72756C10.8169 5.75097 10.9824 5.03715 11.3341 4.57369C11.7955 3.94677 12.4369 3.63848 13.2666 3.63848C14.1108 3.63848 14.7584 3.94677 15.2177 4.57369C15.5653 5.03715 15.7308 5.75097 15.7308 6.72756V9.94698ZM14.059 6.39651C14.059 5.55027 13.817 5.12612 13.2625 5.12612C12.7287 5.12612 12.4742 5.55027 12.4742 6.39651V10.2594C12.4742 11.1056 12.7328 11.5484 13.2625 11.5484C13.817 11.5484 14.059 11.1056 14.059 10.2594V6.39651ZM19.0247 23.6233C19.0247 22.7792 18.9875 22.1729 18.8592 21.8026C18.6564 21.1219 18.2013 20.7701 17.5536 20.7701C16.9474 20.7701 16.3784 21.1012 15.8405 21.7633V17.77H14.2039V29.9691H15.8405V29.0856C16.395 29.7663 16.964 30.0974 17.5536 30.0974C18.1992 30.0974 18.6564 29.7456 18.8592 29.0856C18.9875 28.6966 19.0247 28.0925 19.0247 27.2421V23.6233ZM17.3881 27.3786C17.3881 28.2063 17.1502 28.6118 16.6681 28.6118C16.3929 28.6118 16.1177 28.4835 15.8405 28.2104V22.6674C16.1198 22.3902 16.395 22.264 16.6681 22.264C17.1481 22.264 17.3881 22.6881 17.3881 23.4992V27.3786ZM21.8986 12.9305H20.2206V11.9208C19.5627 12.6926 18.9316 13.063 18.3254 13.063C17.7916 13.063 17.4088 12.8416 17.2433 12.3822C17.1502 12.105 17.0943 11.6622 17.0943 11.0001V3.744H18.7723V10.4994C18.7723 10.8884 18.7723 11.1077 18.793 11.145C18.8302 11.4036 18.9544 11.5484 19.1778 11.5484C19.5089 11.5484 19.8606 11.2898 20.2289 10.756V3.74193H21.9069V12.9264H21.8986V12.9305ZM25.2484 26.8262H23.5704C23.5704 27.4862 23.5539 27.8587 23.5332 27.9497C23.4442 28.3925 23.2021 28.6097 22.7987 28.6097C22.2297 28.6097 21.9545 28.1876 21.9545 27.3414V25.742H25.2484V23.8447C25.2484 22.8681 25.0829 22.1688 24.7518 21.7095C24.276 21.0826 23.6325 20.7701 22.8007 20.7701C21.9566 20.7701 21.309 21.0826 20.8331 21.7095C20.4813 22.1729 20.3158 22.8723 20.3158 23.8447V27.029C20.3158 28.0035 20.502 28.7214 20.8496 29.1622C21.3296 29.7891 21.9731 30.1015 22.838 30.1015C23.7028 30.1015 24.3856 29.7704 24.8263 29.1228C25.0291 28.827 25.1781 28.4959 25.2153 28.1318C25.2525 27.9662 25.2525 27.598 25.2525 27.0621V26.8262H25.2484ZM23.6077 24.3599H21.9545V23.5137C21.9545 22.6881 22.2297 22.264 22.7821 22.264C23.3325 22.264 23.6056 22.6881 23.6056 23.5137V24.3599H23.6077Z" fill="white"/>
</svg>
